<svg version="1.0" xmlns="http://www.w3.org/2000/svg" width="666.667" height="666.667" viewBox="0 0 500 500"><path d="M234 21.7c-7 1.2-19.4 5-27.1 8.3-25.7 11.1-42.8 29-52.5 54.7-5.5 14.5-7 23.7-9.9 57.3-7.6 90.4-15.8 142.6-29.9 191.4-3.6 12.2-3.6 23.9-.1 33.3 6 15.9 13.3 22.9 35.7 34.2 7.8 3.9 15.4 11.3 19.1 18.7 1.3 2.7 4.5 11.4 7 19.4 8.2 25.8 17.4 36.7 36.8 43.7 6.3 2.2 9.1 2.7 18.4 2.7 24.6.1 41.4-8.6 64.7-33.5 6.2-6.7 13.1-13.2 15.4-14.5 5-2.9 12.8-3.2 21.2-.8 7 2.1 18.5 1.4 26.3-1.5 6.5-2.5 14.5-9.2 18.7-15.8 3.8-6 8.7-19.3 10.6-29.3 7.4-37.2 2.8-118.1-11.5-203.5-6.6-39.4-16-67.4-33.6-100.5-10.6-19.8-15.7-27.1-25.5-36.6-20-19.3-42.5-28.5-68.8-28.3-6.9.1-13.6.4-15 .6zm39.5 7.7c17.5 5.2 27.9 11.2 40.7 23.4 9.4 9 17 20.5 27.7 41.8 20.3 40.5 26 61.4 36 131.4 2.2 15.1 4.5 34 5.1 42 .6 8 1.8 22.4 2.5 32 2.5 29.9 1.7 69.2-1.6 88.5-1 5.7-4.9 17.9-8.2 25.5-2.2 5-12.3 14.3-17.9 16.5-7.8 2.9-14.4 1.8-22.6-3.8-8-5.4-11-6.7-16.2-6.7-8.7 0-12.5 3.4-25.5 23.1-5.5 8.3-10.7 14.8-15.4 19.1-20 18.5-49 23.9-70.5 13.1-7-3.5-15.1-11.6-18.3-18.2-2.6-5.3-2.8-6.6-3.3-22.6l-.5-17.1-3.5-6.9c-3.2-6.5-4-7.2-9.3-9.8-3.2-1.5-10.9-4.1-17.2-5.6-13.4-3.5-18.1-5.8-24.6-11.8-5.8-5.4-8.2-9-11.4-17.4-3.8-9.6-4.1-15.8-1.1-26.9 15.8-59.4 20.9-88.3 27.6-156.5 2.2-22.6 4.7-48.2 5.6-57 3.2-31.9 11.3-52.7 26.9-69.3 13.6-14.4 33-24.7 54.8-28.8 11.4-2.1 29.2-1.2 40.2 2z"/><path d="M301.3 110.2c-1.9 2.4-2 4.4-1.1 17.7 1.1 17.3 3.4 21.5 8.9 16 2.1-2.1 2.2-2.8 1.6-16.1-.4-10.3-1-14.6-2.2-16.4-1.7-2.6-5.6-3.2-7.2-1.2zM203.6 111.9c-1.5 1.7-1.7 3.7-1.2 17 .3 8.3.8 15.6 1.1 16.1.8 1.3 4.5 1.3 6.5 0 1.7-1 3-19.7 1.9-28.3-.8-6.6-4.7-8.8-8.3-4.8zM306.5 234.7c.3 2.1 1.9 9.4 3.5 16.3 4.9 20.8 9.9 50.2 13 75 5 41.4 4.9 40.8 4.5 18.5-.3-14.8-1-24.2-2.9-36.2-5.5-35.5-15.4-77.3-18.2-77.3-.4 0-.3 1.7.1 3.7zM213.6 250.6c-1.4 22.5-2.8 39.9-4.6 56.9-2.7 24.4-5 48.6-4.9 51 .3 7.5 6.3-27.6 8.9-52 2.5-22.5 3.8-61.3 2.2-64-.7-1.4-1.1.5-1.6 8.1zM199.3 275.5c-1.2 3.8-2.9 9.7-3.7 13-.8 3.3-2.5 8.7-3.6 12-4.3 12.4-12.1 38.8-11.6 39.3.3.2 1-.6 1.5-1.9.5-1.3 2.3-5.4 3.9-9.1 6.9-15.1 16.6-49.6 16-56.6-.3-3.6-.4-3.4-2.5 3.3zM295.6 301.2c-1.2 11.7-4.6 65.2-4.6 72.7 0 4.1.3 7.2.6 6.8 2.8-2.8 8.2-82.3 5.7-84.8-.7-.7-1.2.8-1.7 5.3z"/></svg>