<svg xmlns="http://www.w3.org/2000/svg" width="264" height="285" style="shape-rendering:geometricPrecision;text-rendering:geometricPrecision;image-rendering:optimizeQuality;fill-rule:evenodd;clip-rule:evenodd"><path style="opacity:.004" d="M130.5-.5h2c-1.085 2.087-2.751 3.42-5 4l3-4Z"/><path style="opacity:.804" d="M149.5 2.5c3.216.372 3.716 1.706 1.5 4-7.783 5.614-13.95 12.614-18.5 21a490.796 490.796 0 0 0 24 3.5 178.288 178.288 0 0 0 29.5 6.5c16.895-.462 31.728-6.129 44.5-17 1 .333 1.667 1 2 2a1141.083 1141.083 0 0 0-28 29.5c39.598 33.127 53.431 74.96 41.5 125.5-4.692 16.56-12.858 31.06-24.5 43.5 6.837.943 13.003 3.443 18.5 7.5 2.409 4.042 1.576 7.042-2.5 9l-2-1c2.801-3.464 2.134-6.297-2-8.5a61.86 61.86 0 0 0-13.5-3.5c-17.44 17.311-38.273 28.811-62.5 34.5a163.202 163.202 0 0 1-16 2 147.615 147.615 0 0 1-18.5 7.5c-2.756.076-3.923-1.257-3.5-4a26.221 26.221 0 0 0 9-3.5 81.802 81.802 0 0 1-16.5-2.5 64.292 64.292 0 0 0-6.5 7c-1.598.985-3.265 1.151-5 .5-8.09-3.959-14.924-9.459-20.5-16.5A61.556 61.556 0 0 1 66.5 268c-8.15 5.504-14.65 4.004-19.5-4.5-1.544-6.584-1.877-13.251-1-20a1827.767 1827.767 0 0 0 6-18c-9.276-8.944-16.609-19.278-22-31-12.606-5.214-17.939-14.548-16-28 .93-2.862 2.597-5.195 5-7C16.137 100.721 41.636 59.554 95.5 36a163.917 163.917 0 0 1 21-6 1362.284 1362.284 0 0 0 33-27.5Zm-20 32a124.541 124.541 0 0 1 31 2.5 345.905 345.905 0 0 0-15 26.5c-5.808-.032-11.475-1.365-17-4-1.493-8.466-1.159-16.8 1-25Zm-24 4c-21.647 18.644-43.314 37.31-65 56 1.688 1.068 3.354.901 5-.5 4.46-4.468 9.46-8.135 15-11 3.174-.506 6.007.328 8.5 2.5 1.53 3.59 2.864 7.257 4 11 .5 15.997.667 31.997.5 48-12.197-1.867-24.197-1.034-36 2.5a47.34 47.34 0 0 0-12.5 7.5c-2.331-36.349 9.502-67.183 35.5-92.5 13.032-11.517 28.032-19.35 45-23.5Zm-7 19c-.166 6.01 0 12.01.5 18a248.32 248.32 0 0 0 10 34c6.871 16.26 5.871 31.926-3 47a49.274 49.274 0 0 1-8-5c-.83-31.503-.664-62.836.5-94Zm85 171c9.37-9.403 16.203-20.403 20.5-33l1-137c38.327 36.006 48.993 79.006 32 129-5.623 12.263-12.79 23.43-21.5 33.5a111.98 111.98 0 0 0-32 7.5Zm-36-161a517.115 517.115 0 0 1 36-.5 212.956 212.956 0 0 0-21 21.5c7.231 10.487 11.731 22.154 13.5 35a737.688 737.688 0 0 1 1 72c-5.188 24.172-17.354 44.006-36.5 59.5a89.974 89.974 0 0 1-25-1 165.693 165.693 0 0 0 17-20.5c-.535-1.601-1.535-2.101-3-1.5a51.057 51.057 0 0 0-8 9c-6.853 2.607-12.686 1.107-17.5-4.5a53.217 53.217 0 0 1-6-11 333.94 333.94 0 0 0-2.5-44 47.161 47.161 0 0 1 5.5-6c1.653.32 2.653 1.32 3 3 6.723-.495 13.056-2.829 19-7l1 34a9.454 9.454 0 0 0 2.5 1.5 69.67 69.67 0 0 0 20-.5 1059.732 1059.732 0 0 0 1.5-46c6.512-2.922 12.512-5.922 18-9 1.367 1.024 2.2.524 2.5-1.5-.113-1.28-.78-2.113-2-2.5a897.84 897.84 0 0 0-18.5 4c-.122-28.171-.289-56.17-.5-84Zm-25 75c.985 4.134 1.318 8.468 1 13a52.704 52.704 0 0 1-12 1.5c4.502-4.158 8.169-8.991 11-14.5Zm-46 20h-3c.167 12.671 0 25.338-.5 38a245.507 245.507 0 0 0-18 22 213.924 213.924 0 0 1-17.5-25c3.37.295 6.704-.539 10-2.5 1.19-4.489.19-5.156-3-2-3.26.784-6.427.617-9.5-.5-4.979-10.093-7.812-20.593-8.5-31.5a36.313 36.313 0 0 1 11-4 434.356 434.356 0 0 1 19-.5c2.536.344 4.703 1.344 6.5 3 4.788-.513 9.288.487 13.5 3Zm2 1c2.053-.098 3.72.569 5 2-2.053.098-3.72-.569-5-2Zm-52 24c-1.517-.011-2.684-.677-3.5-2a45.45 45.45 0 0 1-4-10c-.569-2.964.098-5.63 2-8a220.747 220.747 0 0 0 5.5 20Zm63-19c1.527-.073 2.527.594 3 2-1.527.073-2.527-.594-3-2Zm-17 42a5877.31 5877.31 0 0 1 2 26.5l-1 .5a71.965 71.965 0 0 1-11-9c2.85-6.377 6.184-12.377 10-18Zm134 15a8.43 8.43 0 0 1 4 .5c-16.73 15.532-36.397 24.865-59 28 14.734-13.203 31.734-22.37 51-27.5 1.896 1.606 3.229 1.273 4-1Zm-147 8a140.435 140.435 0 0 1 16 12c-2.197 7.359-6.197 13.525-12 18.5-1.94.743-3.774.576-5.5-.5a33.648 33.648 0 0 1-3.5-11 101.748 101.748 0 0 1 5-19Z"/><path style="opacity:.004" d="M127.5 3.5c-.667.667-.667.667 0 0ZM126.5 4.5c-1.739 2.743-4.073 4.743-7 6 1.739-2.743 4.073-4.743 7-6ZM119.5 10.5c-1.739 2.743-4.073 4.743-7 6 1.739-2.743 4.073-4.743 7-6ZM112.5 16.5c-.667.667-.667.667 0 0ZM111.5 17.5c-.667.667-.667.667 0 0ZM110.5 18.5c-.667.667-.667.667 0 0Z"/></svg>