<svg version="1.0" xmlns="http://www.w3.org/2000/svg" width="2274.667" height="1406.667" viewBox="0 0 1706 1055"><path d="M170.1 1.1c-9 1.4-17.4 4.4-25.6 9.1-5.7 3.3-13.4 10.4-40.5 37.7C69 83 58.9 94.5 45.7 114.5c-8.9 13.5-22.8 41-28.2 55.9-29.4 80.2-20.4 170.2 24.2 242.5C51.9 429.4 63.4 444 80.2 462c23.2 24.6 109.8 110.3 121.3 119.9 21.7 18 54.5 37.2 79.8 46.6 35.3 13 67.3 18.2 106.1 17.2 21.9-.5 32.1-1.7 51.2-5.7 40.2-8.4 81.4-28 115.4-55 6.3-4.9 33.5-31.1 67.5-65 57.6-57.3 63.3-62.4 84.7-76.4 11-7.2 18.7-15.7 24.3-26.8 5.9-11.8 7.9-21.1 7.3-34.7-.4-8.4-1.1-12.4-3.5-19.2-5.8-16.9-18.1-31.1-33.6-38.8-11.4-5.7-19.1-7.5-31.7-7.5-17.4 0-26.8 3.3-47 16.9-25.6 17.1-36.6 27-97 87-48.5 48.2-59 58.1-66.8 63.3-16.2 10.8-33.9 18.1-52.9 21.9-13.2 2.6-39.5 2.4-53-.5-24.6-5.3-45.1-15.3-63.8-31.3-9.4-7.9-112.2-111-118.1-118.4-15.7-19.4-26.1-43.1-30.1-68-1.9-12.2-1.3-37.1 1.2-48.5 4.4-19.7 12.3-38 23.2-53.3 3.6-5.1 18-20.5 38.4-41.2 34.8-35.3 37.6-38.8 42.5-53 3.6-10.6 4.4-25.9 2-36.8-7.8-35.1-42.2-58.9-77.5-53.6zM816.4 152.9c-30.8 8.4-51.4 35.2-51.4 67.1 0 17.8 5.5 32.4 17.5 46.2 3.5 4 75.7 76.6 160.6 161.4 107.3 107 157.8 156.7 165.4 162.8 41.6 33.1 87.7 53 139.5 60.3 17.5 2.4 55.9 2.4 72.5-.1 56.1-8.2 102.4-28.7 143.5-63.4 5.2-4.4 59.1-57.7 119.6-118.4l110.2-110.3 4.1-8.5c5.6-11.6 7.4-19.4 7.4-31.5 0-19.5-6.3-34.5-20.3-48.6-6.8-6.9-10.2-9.4-17-12.7-23.2-11.4-46.4-10.4-68.7 2.9-3.9 2.4-37.4 35.2-115.5 112.9-81.6 81.3-112.2 111.1-118.6 115.7-26.3 18.9-60.4 28.2-92.3 25.3-27.1-2.5-50.5-11.3-72.1-27.1-5.8-4.3-55.8-53.5-167.3-164.9C861.7 150.5 871.2 159.4 855 154c-9.5-3.2-28.8-3.7-38.6-1.1zM806.5 504.5c-21.6 3.8-43.4 13.2-60.2 25.9-6.6 5.1-26 23.7-60.3 58L635.5 639h388L971 586.7c-36.4-36.2-55-54-60.7-58-15-10.6-34.1-19-52.8-23.2-10-2.3-40.5-2.9-51-1zM312 785.5v7.5h93v257h15l.2-128.3.3-128.2 46.8-.3 46.7-.2v-15H312v7.5zM964 786.8v8l42.3.5c38.2.4 43 .6 50.7 2.5 46.9 11.3 81.3 46.4 91.2 93.2 2.6 12.3 2.8 32.8.4 45.3-9 47.1-44.1 83.5-91.6 94.9-7.7 1.9-12.5 2.1-50.7 2.5l-42.3.5v15.8h33.8c36 0 50.9-.9 63.8-4 23.9-5.6 44.7-16.9 62.4-33.6 19.4-18.6 31.2-38.6 38.3-65.4 3-11.1 3.1-12.3 3.1-32.5 0-20.3-.1-21.4-3.1-32.7-14-52.5-54.2-90-107.6-100.4-6.4-1.3-17.3-1.7-49.4-2.1l-41.3-.5v8zM1556.6 780.1c-32.1 3.2-60.8 16.9-83.6 39.8-19.5 19.6-32.7 44.9-37.6 72.1-2.3 12.6-2.3 34.4 0 47 10 55.9 53 99.4 109.3 110.7 13.2 2.6 38.5 2.4 52-.5 27.4-5.9 49.1-17.7 68.9-37.6 19.9-19.9 32-42.2 37.3-68.4 7.8-38.4-1-78-24.3-109-28.7-38-75.4-58.8-122-54.1zm36.9 17.4c23.7 5 44 15.9 61.1 33 36.3 36.2 45.7 90.4 23.8 137-11.1 23.6-33 45.5-56.9 57-27 13-59.4 15.1-88.7 5.9-30.1-9.5-56.7-32.2-71-60.9-9.2-18.2-12.3-32-12.2-54.5 0-14.5.3-17.8 2.6-27.1 12.2-48.4 49.9-83.4 98.8-91.4 10.7-1.8 31.6-1.3 42.5 1zM68.8 781c-24.8 4.3-45 22.8-51.3 47-2.2 8.4-2.3 22.6-.1 31 5.2 20.5 20.7 37.5 40.8 44.8l7.3 2.7 46.5.5 46.5.6 8.1 2.7c19.6 6.5 34.3 21.1 40.8 40.7 3.9 11.5 4.2 25.9.7 37-5.3 17.3-16.9 31.4-32.2 38.9-14.1 6.9-17.3 7.3-66.4 6.9l-43-.4-7.3-2.6c-10.1-3.7-17.4-8.2-24.6-15.4-10.4-10.4-17-23.9-18.2-37.4l-.7-7h-16l.7 7c3.2 32.5 25.1 58.8 57.1 68.7l9 2.7 45.5.1c50.9 0 53.9-.3 67.8-7 23.8-11.4 39.6-31.1 44.9-55.8 2.3-11.2 1.4-29.9-2.1-40.2-4.3-12.6-10-21.9-19.6-31.5-9.5-9.5-18.7-15.2-31.5-19.7l-8-2.7-47-.6c-45.1-.6-47.2-.7-52.9-2.8-30.7-11.3-42-46.8-23.5-73.2 5-7.1 13.5-13.9 21.7-17.2 5.6-2.3 6.4-2.3 49.1-2.6 41.3-.3 43.7-.2 50.1 1.7 17.5 5.4 30.5 20.3 33.4 38.3l1 6.8h15.7l-.6-5.8c-1.8-14.5-9.9-30.9-19.6-39.7-6.8-6.1-15.8-11.4-24.3-14.2l-8.1-2.8-42.5-.1c-23.4-.1-44.6.1-47.2.6zM637.2 875.2l.3 95.3 2.3 8c10.1 35 36 60.1 70.9 68.7 18.6 4.6 42.5 2.2 60.6-6 25.4-11.6 45.1-34.9 52.9-62.7l2.3-8 .3-95.3.3-95.2h-15.6v91.8c0 103.7.3 99.2-7.9 116.7-20.6 43.6-74.6 58.9-114.9 32.5-10.8-7-21.7-19.2-27.2-30.3-8.9-18.1-8.5-12.4-8.5-117.9V780h-16.1l.3 95.2zM1297.2 914.7l.3 134.8 7.8.3 7.7.3V780h-16l.2 134.7z"/></svg>